<?xml version="1.0" encoding="utf-8"?>
<!-- Generator: Adobe Illustrator 25.0.0, SVG Export Plug-In . SVG Version: 6.00 Build 0)  -->
<svg version="1.1" id="Layer_1" xmlns="http://www.w3.org/2000/svg" xmlns:xlink="http://www.w3.org/1999/xlink" x="0px" y="0px"
	 viewBox="0 0 473.2 587.7" style="enable-background:new 0 0 473.2 587.7;" xml:space="preserve">
<style type="text/css">
	.st0{display:none;}
	.st1{fill:#49310B;}
	.st2{fill:none;stroke:#634411;stroke-width:2;stroke-miterlimit:10;}
	.st3{fill:#079918;}
	.st4{fill:#10841B;stroke:#10841B;stroke-miterlimit:10;}
</style>
<g id="Drawing" class="st0">
	
		<image style="display:inline;overflow:visible;enable-background:new    ;" width="492" height="656" xlink:href="B9A6B6D3.jpeg"  transform="matrix(2.915377e-03 -1.2967 1.2967 2.915377e-03 -40.8953 608.6806)">
	</image>
</g>
<g id="Trunk">
	<path class="st1" d="M251.8,246.2C251.8,246.2,251.8,246.1,251.8,246.2l77-45.5c0.1-0.1,0.2-0.3,0-0.4l-4.8-4.7
		c-0.1-0.1-0.2-0.1-0.3,0l-57.9,32.6c-0.2,0.1-0.5-0.1-0.3-0.4l21.5-29.6c0,0,0,0,0.1-0.1c0,0,31.7-19.5,31.5-19.7
		c0,0-7.9-6.6-8-6.6l-18.8,13.9c-1.1,0.7-1.3,0.4-1-0.8c0,0,2.5-13.6,2.4-13.6l-8.3-1.8c-0.1,0-5.2,23.7-5.2,23.7
		c0,0.1-0.1,0.1-0.1,0.2L254,222.2c0,0-0.1,0.1-0.2,0.1l-15.4,15.8c-2.4,2.5-4.9,5.1-8.4,5.1c-2.2,0-2-5.2-0.9-7.6l26-45.1
		l22.8-27.6l-16.9-7.6c-0.1,0-0.2,0-0.3,0.1l-34.7,50.5c-1.3,1.9-3.9,2.5-6,1.3c-2.6-1.5-4.6-3.9-5.6-6.8l-2.4-6.6
		c-1-2.9-1.6-5.9-1.6-8.9v-19.7c0-0.1-0.1-0.2-0.2-0.2l-16.9-1.3c-0.1,0-0.2,0.1-0.3,0.2l-3.7,32.3c-0.1,1-0.9,1.8-2,1.9
		c-1.5,0.1-2.9-1-3.2-2.5l-3.2-19.6c0-0.1-0.1-0.2-0.2-0.2h-9.3c-0.2,0-0.3,0.1-0.2,0.3l3.7,26.7c0,0,0,0,0,0.1l-1.9,22.4
		c-0.2,7-3.7,9.6-6.4,2.4l1,2.6l-12.2-30.4c0,0-6.1-19.1-6.2-19.1c0,0-20.8,4.1-20.8,4.3l17.9,50.9c0,0,6.3,20.2,6.3,20.2
		c0.7,1.6-0.2,3.2-1.7,2.2l-25.3-18.8c0,0,0,0,0-0.1l-16.5-48.8l-6.9,1.4l10.7,30c1.1,2.7-2.2,4.2-3.5,2.5c0,0-17.1-19-17.2-18.9
		L80,213.6c-0.1,0.1,18.1,22,18.2,22l14.8,13.3c0,0,0,0,0,0l18.7,17.1l0,0l19.5,15.8c0,0,0.1,0.1,0.1,0.2l3.6,30c0,0,0,0,0,0
		l1.8,40.3c0,0.2,0,0.5,0,0.8l0,1.1v0l-0.3,25.8c0,0,0,0,0,0l-1.3,18.2c0,0,0,0,0,0l-5.3,26.1c0,0,0,0,0,0l-11.6,34c0,0,0,0,0,0
		l-14.8,23.7l-15,22.4c0,0,0,0,0,0l-18.2,17.1c0,0,0,0,0,0l-17.9,11.6c0,0,0,0-0.1,0l-21,5.8c0,0-0.1,0-0.1,0l-13,10.6c0,0,0,0,0,0
		l-7.6,11.1l0,0l-6.5,10.9c0,0,0,0,0,0l-5,10.8c-0.1,0.2,0.1,0.4,0.3,0.3l41.7-10.7c0,0,0,0,0,0l38.7-7.4c0,0,0,0,0,0h42.9
		c0,0,0,0,0.1,0l18.5,4.7l14.4,4.2c0,0,0,0,0,0l14.5,8.1c0,0,0,0,0,0l13.6,4.7c0,0,0,0,0.1,0l15.2,1.1c0,0,0,0,0,0h7.1
		c0.2,0,0.3-0.2,0.2-0.3l-4.3-17.7c0,0,0,0,0,0l-6.7-15.1c0,0,0,0,0,0l-3.6-6.7l-1.5-2.9c-0.1-0.2,0.1-0.4,0.3-0.4l13.7,2.5
		c0,0,0,0,0.1,0l10.4,4.6c0,0,0,0,0,0l19,4.9l16.2,3.4l25.9,5.6c0,0,0,0,0,0l22.4,1c0.2,0,0.3-0.1,0.3-0.3l-2.5-21.5l-6.9-23.6
		c0,0,0-0.1-0.1-0.1l-42.4-36.4c0,0,0,0-0.1-0.1L247.2,448c0,0,0,0,0-0.1l-30.6-162.2c0-0.1,0-0.2,0.1-0.2L251.8,246.2z"/>
	<path class="st2" d="M156.9,352.4c5.5-26.7,13.5-55.7,35.6-75.1"/>
	<path class="st2" d="M180.6,275v0.8c0,3.7,1.6,7.2,4.3,9.6l0,0"/>
	<path class="st2" d="M182.7,201.6l1.5,3.3c1.4,3,5.7,3.1,7.2,0.2l1.8-3.4"/>
	<path class="st2" d="M212.5,439.3l-0.4-0.4c-2.2-5.6-6.3-10.2-11.5-13.2l-0.5-0.3c-4.6-3.3-10.8-3.5-15.6-0.5l-5.2,3.4
		c-7,4.5-8.7,14.1-3.7,20.7l2.5,3.3c5.6,7.4,16.7,7.5,22.4,0.3l2-2.5c3-3.7,2.4-9.2-1.3-12.2l-4.5-3.6c-2.5-2-6.1-2.2-8.8-0.4l0,0
		c-3.8,2.5-4.5,8-1.3,11.3l2,2.1c2.1,2.2,5.6,2.1,7.6-0.2l0.3-0.3c1.7-1.9,1.4-4.8-0.6-6.5l-0.2-0.2c-1.4-1.2-2.5-1.6-3.7-1.2
		c-1,0.3-1.6,1.2-1.9,2.1l0,1.5"/>
	<path class="st2" d="M105.3,227.1l3.3,1.8c3.3,1.8,7.4-0.3,7.9-4.1l0.2-2.1"/>
	<path class="st2" d="M287.1,183.7v2.8c0,2.2,2.3,3.7,4.3,2.8l4.3-1.9"/>
</g>
<g id="Leaves">
	<path class="st3" d="M465.9,217l-0.4,1.1l-5.4,2.3c0.4,3.2,4.7,7.2,2,8.9l-5.5,0.9l-4.6,0.3c-2.2,1.4-1.6,4.6-3.7,3.2l0,0l-3.2,7.6
		l0.8,5.1c-0.3,1.6-3.4-0.9-4.7,0.2l-4.7,3.9l-1.4,1.2c0.1,2.5,1.6,0.5-0.3,2.1l-4.1,2c-0.2,0.3-4.9-1-5.2-0.7
		c-2.6,2.9,0.7,2.7-3.2,3l-6.1,3.7l1.8,2c-0.8,2-1.1,0.4-3.1,1.2l0.1,0.6c-3.4,1.3-4.4,5.3-6.7,2.5l0,0l-0.3,0.2
		c-2.3,1.5-5.2,1.7-7.7,0.6l-0.6-0.3l-0.2,0.1c-2.8,1.4-6,1.7-8.9,0.6l-0.5-0.2c-0.1,0.3-0.2,0.5-0.3,0.8c-0.6,1.2-1.9,1.8-3.2,1.9
		l-2.2,0.1c-2.3,0-5.6-0.3-8.2-1.3l-2.1-0.8L373,270c-2.7,0.8-5.7,0.1-7.7-1.9l-0.4-0.4c-0.9,1.2-2.3,2-3.8,2l0,0
		c-3.4,0.1-6.3-2.3-6.8-5.7l0,0l-1.8,0.6c-2.4,0.8-5.1-0.4-5.9-2.9c-0.4-1.2-0.7-3.5-0.7-3.5l-6-1.5c-8-2.1-12.3-10.9-8.9-18.5
		l1.2-2.7l-2-6.2c-2.5-7.8-0.7-16.4,4.8-22.5l3-3.3l-2-0.2c-9-1-16-8.3-16.5-17.4l-0.1-1.3l-7.2-1l-4.6-1.2c-2.9-0.8-5.1-3-5.9-5.9
		l-0.5-2l-3.2,0.8l-0.9,0.2c-13.3,4.1-16-6.7-16-6.7l-9,2.9l-4.8,0.2c-5.4,0.3-10.5-2.2-13.7-6.6l-0.4-0.6l-6.5,4.9
		c-3.5,2.6-9.6,4.1-13.3,1.8l-5.3-2.2c0,0-6.3,5.1-11.4,6.4l-4.5,1.1c-5,3.9-11.3,5.5-17.5,4.5c-12.2-2-12.5-2.1-12.5-2.1l-11.6-1.5
		l-3.1,3.7c-1.6,1.9-3.8,3.2-6.3,3.7l-7.8,1.4l-3.5-3.9c-6.8,6.5-14.6,12.1-22.4,6.8l-1.2-0.8l-1.5,2.1c-1.4,1.9-3.3,3.2-5.6,3.9
		l-3.4,0.9l-1.4,5.3c0,0.1,0,0.1,0,0.2c-0.2,5.2-3.5,9.8-8.7,10.6l-0.3,0c-1.2,1.4-2.8,2.5-4.5,3.2l0,0c-2.2,3.8-6.3,6.2-10.7,6.2
		l-3.8,0l-5.8,2.9l-0.3,2.7c-0.2,1.3-1,2.4-2.2,2.9l-8.4,3.2c-2.3,0.9-4.9,1.1-7.4,0.5l-6.6-1.6l-3.8,2.9c-3.2,2.5-7.2,3.5-11.2,2.9
		c-0.9-0.1-1.8-0.3-2.4-0.3l-5.5,0.9c-2.7,0-3.8-2.8-5.7-4.5l-3.8-1.7c-4.4-1.9-6.9-6.5-6.3-11.2l0.2-1.8l-0.9-1
		c-3-3.5-4.2-8.3-3.1-12.8l0.3-1.1l-0.7-1.7l-2.3-5.4c-2.7-6.4-1.1-13.9,4-18.6l2.3-2.1l-5.8-4c-1.8-1.3-3.2-3.1-3.9-5.3l0,0
		c-2-6.7-1.4-13.9,1.8-20.1l0.5-0.9L7.4,144c-4-3.4-6.1-8.5-5.7-13.7l0.3-4L0,117.8c-0.3-7.3,4.5-9.6,8.5-15.7l0,0l-0.7-5.3
		c-0.8-6.3,1.2-12.7,5.5-17.4l0,0l-0.1-5.7c-0.1-8.2,3.5-16,9.9-21.1l2.7-2.2l-0.7-3.1c-1.7-7.4-1.3-9.7,3.2-15.8l-0.1-0.6
		c-0.5-3.7,1.3-7.4,4.5-9.4l0,0l0,0l4.9,7.3c2.8-6.1,7.4-0.8,14.1-0.2l2-15.9l3.3-1.2c13.3-4.8,27.9-5.1,41.5-0.9l1.1,0.3l0.2-0.1
		c11.6-6.6,12.9-9.6,26.1-8.1l7.1-1.6c4.9-1.1,10.1-0.1,14.2,2.9l0,0c7.8-1.1,15.6-0.6,23.2,1.4l4.6,1.6l2-0.7
		c2.5-0.9,5.1-1.3,7.8-1.2c6.8,0.3,13.5,2.6,19,6.7l0,0l5.4-2.9c5-2.7,10.9-3.3,16.4-1.7l5.4,1.6c15.3-6.7,14.7-5,30.5,0.6l0,0
		l5.2-1.9c5.5-2,11.5-2.4,17.3-1.2l0.2,0l0,0c5.1-2.1,10.6-2.7,16-1.8l6.7,1.1c3.9-0.6,7.9,0.4,11.1,2.7l2.6,1.9l3.4-0.5
		c3.7-0.5,7.5,0.4,10.6,2.7l0.3,0.2c3,0.4,5.7,2.3,6.8,5.1c0,0,0,0,0,0.1l1.2,3.2l0.3-0.4c0.8-1.1,2.1-1.7,3.5-1.6l0.5,0l0.1-0.1
		c1.2-1.2,2.9-1.6,4.5-1.2l0.3,0.1l0,0c2-1.3,4.8-0.7,6.1,1.3l0.1,0.1l0.3,0.1c2.4,0.6,4.3,2.4,4.9,4.8l0,0l0.1-0.1
		c2-1.3,4.6-1.5,6.8-0.6l0.5,0.2l0.2-0.3c1.9-2.5,5.1-3.6,8.1-2.9l1,0.2l0.6-0.3c2.7-1.1,5.7-0.4,7.6,1.7l0.1,0.1l2.1,0.3
		c2.5-1,4,0.9,4.8,3.5l1-1.3l2.8,2.2c1.6,2.6,1.5,5.9-0.3,8.4l-0.2,0.3l0.8-0.2c2.4-0.7,4.9,0,6.6,1.8l0,0l0.5-0.5
		c2.3-2.3,6-2.4,8.4-0.1l0.1,0.1l0.5,0.5c3,2.8,4.1,7.1,2.8,11l-0.1,0.4l0,0c6.8-0.8,13.3,3,16,9.3l0.1,0.1l4.1,0.1
		c4.8,0.1,9,3.1,10.8,7.5l0.3,0.9l1.2,0.6c2.1,1.1,3,3.7,1.8,5.8l0,0l0.1,0.1c2.1,1.8,2.7,4.8,1.5,7.3l-0.4,0.7l2.3,1.8
		c5.6,4.3,7.2,12,3.8,18.2l-0.2,0.4l0.2,0.4c1.3,2.7,0.5,6-2,7.8l-0.2,0.1l1.2,0.2c2.8,0.6,4.9,3,5.1,5.9l0,0.2l0.3,0
		c2.1,0.2,3.9,1.7,4.4,3.8l0,0.1c0.5,2.2,0.5,4.5,0.1,6.7l-0.7,3.7c0.6,1.6,0.6,3.4,0,5.1l-0.8,2.4l0.5,1.4c0.8,2,0.6,4.1-0.4,6
		l-1.4,2.7l0.9,3.1c0.5,1.7,0.2,3.5-0.7,5l-1.6,2.7l2.3,1.2l0.5,0.5c2.5,2.5,3,6.4,1.2,9.5l0.5,0.4c1.8,1.7-1.1,5.7-2.8,7.5l3.3,0.4
		l0,0c2,1.2,3.1,3.5,2.7,5.8l0,0c-0.4,2.6-1.8,5-3.8,6.7l0.1,0.1c1.9,3,1.7,6.8-0.4,9.6l-0.7,0.9l0.7,1.5c0.6,1.2-4.5,2.2-4.3,3.5
		c0.3,2.9,5,6.3,3.2,8.7L465.9,217z"/>
	<path class="st4" d="M457.6,110L457.6,110c2.8-1.7,4.2-5,3.5-8.2l-0.5-2.2l0.3-0.4c2-3.3,2.3-7.3,0.6-10.8l-0.9-1.8l0,0
		c0.4-3.1-1.2-6.1-4-7.5l-1.6-0.8l0.3-0.8c1.5-3.2,0.1-7-3-8.5l0,0l0,0c0.8-3.2-1.4-6.4-4.7-6.8l-2-0.2l-0.9-2.4
		c-1.4-4-5.3-6.5-9.5-6.3l-4.2,0.2l-0.5-1.8c-1.3-4.7-5.5-8.1-10.4-8.3l-1.5-0.1l-0.2-0.9c-0.8-5-5.5-8.5-10.6-7.8l0,0l0-1
		c-0.2-3.7-3.6-6.5-7.3-5.8l0,0l-0.3-1.3c-0.8-3.9-4.9-6.1-8.6-4.6l0,0l-0.3-0.5c-2.2-3.5-7.2-3.7-9.7-0.3l0,0l-0.1-0.2
		c-1.8-3.6-6.7-4.2-9.3-1.1l0,0l-0.2-0.6c-1.1-3.7-5.8-4.7-8.3-1.9l0,0l0-0.1c-1.8-3.2-6.6-2.8-7.8,0.7l0,0l-0.3-0.4
		c-1.8-2.3-5.5-1.5-6.2,1.3l0,0l0,0c-2.2-2.6-6.5-1.1-6.7,2.2l0,0.8l2.3-0.2c5.8,0.5,10.5,4.8,11.5,10.6l0,0l0.7,0
		c6.8,0.3,12.8,4.7,15.1,11.1l0.5,1.5l3,0c5.9,0.1,11,4.3,12.1,10.2l0.3,1.7l1.4-0.1c6.3-0.6,11.9,4.2,12.1,10.6l0,0l1.1-0.1
		c6.4-0.7,12.2,4.1,12.6,10.5l0,0.2l1-0.1c6.6-0.5,12.4,4.4,13.1,11l0,0l2-0.2c6.2-0.6,11.6,4.4,11.5,10.6l0,0l3.3,0.1
		c4.5,0.2,8.4,3.1,9.8,7.4L457.6,110"/>
	<path class="st4" d="M147.1,4.1l-3.3-2.3c-2.7-1.9-6.1-2.2-9.1-0.9L134.5,1l-2.1-0.5c-4.1-1.1-8.5-0.1-11.8,2.5l0,0l0,0
		c-7-2.7-15-1.6-21.1,2.8L96,8.3l0,0C91,3.9,83.6,3.4,77.9,7.1l-1.2,0.8L73,7.1c-6.7-1.3-13.5,1-18.1,6l0,0l0,0
		c-5.3-3-11.9,0.1-13.1,6l-0.3,1.6L38,20.6c-5.8-0.3-10.4,4.7-9.8,10.4l0,0l0,0c-5.1,3.5-6.9,10.2-4.2,15.8l1.8,3.7l1.8-2.4
		c7.7-10.5,21.5-14.5,33.6-9.6l0,0l0,0c4.7-10.2,16.5-15.1,27-11.2l3.4,1.3l3.2-3.8c6.3-7.5,16.5-10.2,25.7-6.9l0,0l0,0
		c4.9-8.1,13.7-13.2,23.2-13.6L147.1,4.1"/>
	<path class="st4" d="M171.3,176.6l-5.5,2.4c-5.6,1.9-11.8,0.9-16.6-2.4l-1.4-1l-3.6,2.3c-5.1,3.2-11.7,2.9-16.6-0.7l-2-1.5
		l-6.1,3.4c-5.2,2.9-11.7,2.6-16.7-0.6l-4.1-2.7l-3.8,2.8c-6.7,4.8-15.9,4.4-22.1-1l-2-1.8l-1.9,1.7c-7.5,6.9-19.1,6.6-26.3-0.5
		l-1.3-1.3l-5.2,3.7c-5.8,4.1-14.9,1.9-19.5-3.6l0,0c-5.5,1.7-8.8,7.4-7.6,13l0,0.2l0,0c-2.1,4.5-1,9.8,2.6,13.1l1.6,1.5l-0.6,1.2
		c-2.7,5-0.8,11.2,4.3,13.7l0,0l-1,5.4c-0.7,3.8,2.5,7.1,6.4,6.6l0,0l0.3,1.7c0.6,3.4,4,5.5,7.4,4.6l0,0l0,0
		c2.7,3.7,7.7,4.8,11.7,2.4l3.1-1.9l0.5,0.3c4.8,2.3,10.5,2,15.1-0.8l5.4-3.3l3.6,0.2c6.3,0.3,12.2-3.2,15-8.8l1.9-3.9l0,0
		c7.9,2.7,16.6-0.8,20.4-8.2l1.1-2.2l0,0c6.7,2.3,13.7-2.6,13.8-9.7l0.1-7.4l1.6,0.5c8.1,2.8,17.1-0.1,22-7.2l0.9-1.3l5.4,1.7
		c5.8,1.8,12.2-0.3,15.8-5.2L171.3,176.6"/>
	<path class="st4" d="M337.9,203.6l4.6,2.8c7.2,4.3,16.3,3.2,22.2-2.8l0,0l7.5,2c7,1.8,14.5-1,18.4-7.2l0,0l0,0
		c6.5,4.8,15.8,2.9,19.9-4.1l1.5-2.5l0,0c5.1,3.7,12.3,1.1,13.9-4.9l0.8-3.1l0,0c6.5,3.1,14.3-0.3,16.5-7.2l0.7-2.1l0,0
		c5.7,3.3,13,1,15.8-4.9l5-10.4l4,2c5.5,2.7,6.2,10.3,1.3,14l-2.4,1.8l1.8,1.2c5.6,3.6,4.7,12.1-1.6,14.4l-1.3,0.5l2,1
		c5.1,2.7,4.3,10.2-1.2,11.9l-2.6,0.8l0.5,0.3c5.8,3.5,4.1,12.3-2.6,13.4l0,0l0.8,1.3c3.2,5.5-2.1,12-8.1,10l-2.5-0.8l0.6,1.5
		c2.2,5.3-3.7,10.3-8.5,7.2l-2.9-1.8l3.6,2.9c4.1,3.3,1.4,9.8-3.8,9.3l-2.7-0.3l0,0c2.1,5.1-3.7,9.8-8.2,6.7L429,255l0,0
		c2.5,4.5-2,9.6-6.7,7.6l-0.4-0.2l-0.1,1.6c-0.5,6.2-8.3,8.8-12.5,4.2l-1.1-1.2l-0.3,0.9c-2.4,6.2-10.3,7.9-15.1,3.4l-2-1.9l0,0
		c-3.7,5.9-12.1,6.3-16.4,0.8l-1.2-1.6l-0.1,0.4c-1.8,5.5-9.3,6-11.9,0.9l0,0l-0.1,0.1c-4.3,4.1-11.5,1.3-11.9-4.6l0-0.6l-0.3,0.2
		c-5.2,3-11.2-2.3-8.9-7.8l0.1-0.2l-2.9,0.8c-5.1,1.4-9-4.5-5.7-8.6l1.7-2.1l-1.4,0.1c-4.5,0.4-6.4-5.6-2.4-7.8l1.7-0.9l0,0
		c-6.5-1.4-7.3-10.4-1.1-12.9l1.1-0.5l-2.2-1.6c-4.9-3.6-2.3-11.4,3.8-11.3l0,0l-2.8-1.5c-3.7-1.9-3.3-7.3,0.5-8.8l0,0L337.9,203.6z
		"/>
</g>
<g id="Details">
	<polyline class="st2" points="244.5,554.1 227,520.6 215.1,472.4 211.1,421.7 208,379.8 	"/>
</g>
</svg>
