<?xml version="1.0" encoding="utf-8"?>
<!-- Generator: Adobe Illustrator 25.0.0, SVG Export Plug-In . SVG Version: 6.00 Build 0)  -->
<svg version="1.1" id="Layer_1" xmlns="http://www.w3.org/2000/svg" xmlns:xlink="http://www.w3.org/1999/xlink" x="0px" y="0px"
	 viewBox="0 0 256.6 434" style="enable-background:new 0 0 256.6 434;" xml:space="preserve">
<style type="text/css">
	.st0{display:none;}
	.st1{fill:#10841B;}
	.st2{fill:#49310B;}
	.st3{fill:none;stroke:#634411;stroke-miterlimit:10;}
	.st4{fill:#079918;}
</style>
<g id="Layer_1_1_" class="st0">
	
		<image style="display:inline;overflow:visible;enable-background:new    ;" width="492" height="656" xlink:href="73B50B1A.jpeg"  transform="matrix(-1.168290e-03 -1 1 -1.168290e-03 -44.9642 458.4926)">
	</image>
</g>
<g id="leaves_-_back">
	<path class="st1" d="M77.9,162.5l2.2,0.6c10.4,2.8,20.4-5.7,19.4-16.4l0,0l3.4,0.8c3.9,0.9,7.7-2,7.7-6.1l0,0l0,0
		c5.7-0.5,9.5-6.1,8-11.6l-0.6-2.1l7.4,2.4c6.7,2.2,14,1.5,20.2-1.9l0.9-0.5l0,0c1.8,6.7,8.2,11,15.1,10.1l4.9-0.6l-0.3,3.1
		c-1,8.9,4.5,17.2,13.1,19.8l1,0.3l-9.5,15.3l1.3,3.8c2.4,7.1,11.7,8.9,16.6,3.1l0.1-0.1l2.7,3.2c3.8,4.5,11.1,3.4,13.3-2.1l0.9-2.1
		l0.8,1.1c3.6,5.4,11.8,4.4,14-1.8l1.1-3.1l0,0c6.6,3,14.3-0.6,16.1-7.7l0.7-2.9l0,0c6.4,0,10.6-6.6,7.8-12.4l-3.6-7.6l0.9-0.1
		c4.9-0.8,7-6.6,3.9-10.4l0,0l4-2.5c5.8-3.6,4.3-12.3-2.3-13.9l-2.2-0.5l2.7-1.8c6.8-4.5,6.6-14.6-0.5-18.8l-0.7-0.4l2.2-1.8
		c6.6-5.4,5.5-15.8-2.1-19.6l-3.8-1.9l0.8-0.6c7.2-5.4,6-16.6-2.3-20.3l-1.7-0.8l0,0c4.7-4.9,2.7-13-3.8-15.1l-8.3-2.8l1-0.9
		c4.5-4.1,1.2-11.5-4.8-11l-7.2,0.7l0.6-0.8c3.5-4.4-0.2-10.7-5.8-9.8l-3.9,0.6l0,0c0.2-6.8-7-11.2-12.9-7.9l-2.9,1.6l0,0
		c-4.7-8-14.9-10.8-23-6.4l-6,3.2l-1.7-1.2C155-1.2,144.4,1,139.6,9l0,0l-3.9-3.9c-5.8-5.7-15.3-4.9-20.1,1.7l-0.8,1.1l-2.3-2.5
		c-4.8-5.3-13.3-4.6-17.2,1.4l0,0l-1.4-1.1c-6.6-5.3-16.2-4.4-21.7,2l-0.1,0.2l0,0c-4.7-4-11.8-1.3-12.8,4.7l-0.4,2.2l-1.5-1
		c-7-4.4-16.3-1.1-19,6.8l0,0l0,0c-8-1-14.8,6.1-13.3,14.1l0.1,0.7l0,0c-6.9-2.1-13.5,3.9-12.1,10.9l0.5,2.2l0,0
		C6.1,50.3,1.7,57.9,4,65.1l1.6,5l0,0C-0.4,75-1.1,84,4,89.7L8.8,95l-1.4,2c-5.5,7.8-3.4,18.6,4.6,23.8l0,0l-0.6,1.4
		c-3.3,7.6,0.9,16.4,8.9,18.5l2.3,0.6l0,0c-3.6,6.3,1.3,14,8.5,13.4l2.6-0.2l0.3,2.2c0.8,5.9,7.2,9.3,12.6,6.6l4-2l0,0
		c5.7,6.6,15.4,8.2,22.9,3.7L77.9,162.5z"/>
</g>
<g id="trunk">
	<path class="st2" d="M24.2,390.8l40.3-37.2L78,348l16.6-26.9l8.7-28.5v-40.3l6.3-52.2v-26.9l-17.5-36l7.5-4l12.7,27
		c0.8,1.8,3.5,1.3,3.7-0.6l3-27l-3.6-14l3.4-0.8l3.8,10.3c0.2,0.6,1.1,0.5,1.2-0.1l2.6-14.9l5.7,0.2l-2.8,18.8l3.4,10l6.6,6.6
		l7.9,6.6l5-1l16.2-31.5l10,4.9l-14.8,28.1c-1.5,2.9,1.5,6,4.5,4.6l25.1-12.3l9.2,3.1l-33.6,25.8l-13.7,4.8l-13.2,35.6l-6.9,35.6
		l-1.3,25l7.1,47l8.4,9.2l14,1.8l16.9,24.8l5,25.8l-27.6-21.1l-18.3,5.5l8,16.2l1.7,20.4l-6.3,26.4l-8.8-39.5l-21.2-11.7l-12.7-4.2
		l-9.5,3.7l-15.3,18.7l-17.9,33l3.5-22.9l2.8-10.8l14.3-21.4l-13-2.6l-12.3,1.2L24.2,390.8z"/>
	<path class="st3" d="M120.9,127.6l1.2,2.2c0.5,1,2,0.9,2.4-0.1l1-2.8"/>
	<polyline class="st3" points="139.2,371 127.4,340.7 122.5,308.9 121.1,284.6 	"/>
	<polyline class="st3" points="135,253 134.5,253 131.2,223.4 130.1,197.7 130.7,169.6 	"/>
	<polyline class="st3" points="105.6,233.3 106.1,233.4 112.2,211.2 114.2,200.4 	"/>
	<line class="st3" x1="130.2" y1="196.5" x2="133.3" y2="174.8"/>
</g>
<g id="leaves_-_front">
	<path class="st4" d="M75.8,142.5l2.5,2.9c3.4,4,9.8,3.4,12.3-1.2l1-1.8l2.1,0.2c5.6,0.4,9.8-5,8-10.3l-0.6-1.8l0.8,0.1
		c4.1,0.5,7.3-3.6,5.7-7.5l-0.5-1.3l3.9,1.1c3.4,1,6.9-0.8,8.2-4l1.7-4.2l1.3,0.9c5.2,3.3,12.1,0.8,13.9-5l0.2-0.6l0.6,0.7
		c3.2,3.7,8.9,3.7,12-0.1l0.5-0.6l0,0c1.7,5.3,8.2,7.1,12.4,3.5l0.6-0.5l-0.9,4.4c-1,5,2.6,9.8,7.7,10.2l2.3,0.2l0.2,0.4
		c2.5,5,8.9,6.3,13.2,2.8l0.9-0.8l-0.8,2.7c-1.4,4.6,2.7,9,7.3,7.8l1-0.2l-0.9,3.6c-1,4.3,1.8,8.5,6.1,9.3l3.1,0.5l0,0
		c-1.5,3.1,0.8,6.7,4.2,6.7h1.3l0.2,0.1c4.5,2.9,10.4,2.4,14.3-1.3l1.7-1.6l0,0c3.6,3.2,9,3.1,12.6,0l0.8-0.7l0.3,0.3
		c2.5,2.1,6.3,1.5,8-1.3l0.1-0.1c1.7-2.9,0.7-6.6-2.3-8.1c-0.4-0.2-0.6-0.3-0.6-0.3l2-0.7c4.3-1.5,5.8-6.8,2.8-10.3l0,0l5.4-3
		c4.4-2.7,3.5-10.6-1.2-12.8l-4.4-1l2.9-2c6.3-4.3,6.3-13.7,0-18l-1.8-1.2l4.7-3.5c5.5-4.5,4.5-13-1.7-16.3l-6.7-3.4l5.3-4.9
		c4.4-4.4,3-11.8-2.6-14.4l-5.2-2.4l2-3.7c2.5-3.9,0.7-9.1-3.7-10.6l-10.2-3.4l1.6-3.1c2.7-5.2-2.1-10-7.9-9.3l-5,0.6l0.8-1.5
		c2.6-4.4-1.7-10-6.7-9.1l-3.5,1l-0.1-1.9c-1-5.9-7.8-9.1-13-6l-2.9,1.6L192.1,6c-6.2-7.5-18.1-8.1-25.6-2.1l-2.1,1.4L164,5
		c-6.4-6.8-17.6-5.8-23,1.9L139.6,9l-0.2-0.1c-7.8-3-16.5,1.6-18.5,9.7l0,0l-0.3-0.2c-6-4.7-14.9-2.7-18.3,4.2l-0.4,0.8l-0.4-0.4
		c-5.4-6-15.2-4.5-18.7,2.8l-0.7,1.6l0,0c-6-6.5-16.3-6.3-22.2,0.2l-1.6,1.8l-0.2-0.2c-6.3-4.3-15-1.3-17.5,5.9l-0.1,0.2l-1.5-1.5
		c-4.1-4-10.8-3.2-13.9,1.6l0,0L23.5,35c-6-1.2-11.5,3.7-10.7,9.7l0.8,3.8l-0.9,0.2C5.9,49.5,1.5,56.5,3.5,63l2.1,7.1l-2,1.7
		C-1.9,77.8-1,87.6,5.3,92.7l3.4,2.7L6.5,98c-5.1,6-4.3,15,1.6,20.1l3.7,3.2l4.3,5.5c5.3,6.8,15.2,7.8,21.8,2.2l1.8-1.5l2,3
		c4,6.1,12.4,7.3,18,2.7l2.6-2.1l0.9,7c0.7,5.2,6.4,8,10.9,5.4L75.8,142.5z"/>
</g>
</svg>
