<?xml version="1.0" encoding="utf-8"?>
<!-- Generator: Adobe Illustrator 25.0.0, SVG Export Plug-In . SVG Version: 6.00 Build 0)  -->
<svg version="1.1" id="Layer_1" xmlns="http://www.w3.org/2000/svg" xmlns:xlink="http://www.w3.org/1999/xlink" x="0px" y="0px"
	 viewBox="0 0 237.4 494.8" style="enable-background:new 0 0 237.4 494.8;" xml:space="preserve">
<style type="text/css">
	.st0{display:none;}
	.st1{display:inline;fill:#10841B;}
	.st2{fill:#10841B;}
	.st3{fill:#49310B;}
	.st4{fill:none;stroke:#634411;stroke-miterlimit:10;}
	.st5{fill:#079918;}
</style>
<g id="Layer_1_1_" class="st0">
	
		<image style="display:inline;overflow:visible;enable-background:new    ;" width="492" height="656" xlink:href="2DC35F65.jpeg"  transform="matrix(-1.509024e-03 -1 1 -1.509024e-03 -12.9031 507.4178)">
	</image>
	<path class="st1" d="M89.1,132.1"/>
</g>
<g id="leaves_-_back">
	<path class="st2" d="M97.8,131.1l-3.4,5.2c-2.7,4.2-8.5,5.2-12.4,2.1l-1.1-0.8l0.3,1.2c1.3,4.9-2.7,9.6-7.7,9l-0.5-0.1l4,7.6l-8-3
		l1.9,14.7c0.6,4.9-4,8.8-8.7,7.4l-0.5-0.1l-0.6,0.5c-3.8,3-9.4,0.4-9.5-4.4l0,0l-2.8-0.3c-6.5-0.7-9.7-8.2-5.6-13.3l0,0l0,0
		c-6.2,0-9.7-7.3-5.6-12.1l0.4-0.4l-1.5-0.1c-5.8-0.5-8.3-7.7-4-11.7l0,0l-2.1-1c-6.1-3-6.7-11.5-1.1-15.3l0,0l-2.3-1.5
		c-6-3.9-5.8-12.9,0.5-16.4l1-0.6l0,0c-6.1-5.3-4.2-15.2,3.4-17.9h0l-0.9-1c-4.8-5.4-2-13.9,5.1-15.4l0,0l-0.2-0.6
		c-2.2-7.4,5.2-14,12.3-11l0,0L47.5,50c-3.1-7.8,4-15.7,12-13.5l0,0l0-0.7c-0.2-6.9,6.9-11.6,13.2-8.8l0,0l0.3-0.3
		c6.4-6.4,16.8-6.6,23.4-0.3l0.3,0.3l1.4-1.5c5.3-5.8,14.6-5.7,19.7,0.4l0.8,0.9l0.1-0.1c6.4-5.9,16.3-5.3,22,1.2l0,0l1.1-1.6
		c5-7,15.6-6.1,19.3,1.6l0.6,1.3l3.6-3c6-5,15.1-1.8,16.7,5.9l0,0l1.6-1.3c5.3-4.3,13.2-0.7,13.4,6.1l0,0l1.1-0.6
		c7.4-4,16.5,0.7,17.7,9l0,0l0,0c4,1.9,4.3,7.5,0.4,9.8l-3.6,2.1l0.9,0.4c6.9,3.2,8,12.6,2,17.3l0,0l2,1.8c4,3.6,3.8,9.9-0.5,13.2
		l0,0l0,0c3.5,7.7,0.6,16.7-6.6,21l-3.4,2l0.2,0.4c3.5,8.1,2.1,17.5-3.6,24.4l0,0l1,2.9c2.9,8-0.3,16.9-7.6,21.1l0,0l0.8,2.5
		c2.3,6.9-0.3,14.5-6.4,18.6l-0.5,0.3l0.7,6.5c0.9,8.2-4.7,15.6-12.9,17l0,0v6.6c0,5.6-5.1,9.7-10.5,8.6l0,0l0,0
		c-0.8,6.7-8,10.5-14,7.3l-1.3-0.7l-1.6,2.3c-4,5.8-12.4,6.2-17,1l-2-2.2l-3.6,3.5c-3.7,3.6-9.8,2.9-12.5-1.5l-2.6-4.1l15.8-26.1
		l-4.3-5.9c-3.9-5.3-3.4-12.6,1.2-17.3l0,0l0,0c-5.5-1.7-8.2-7.9-5.7-13.1l0.9-1.9l0,0c-5.4,0.9-9.7-4.4-7.8-9.5l3.9-10.3l-1.3,0.7
		c-5.5,3-12.4,0.8-15.2-4.8L97.8,131.1z"/>
</g>
<g id="trunk">
	<path class="st3" d="M13.6,475.8l33.8-46.4L60,392.5l19.5-142.9l-2.9-63l-14.3-42.4l5.9-2.4l15.5,22.4c1.7,3,6.3,1.8,6.3-1.7
		l-0.5-41.6L73.2,97.6l11.6-8.4l7.3,17.6c1.6,3.9,7.2,3.8,8.7-0.1l8.3-21.7l6.3,4.2l-10,22.7l-2.5,38.9c-0.2,2.6,3.2,3.8,4.7,1.6
		l21.5-32l7.7,3.8l-25.6,54.2l-7.5,31.2c-0.7,2.9,3,4.8,4.9,2.4l38.3-44.8l6.9,4.2l-43.7,70.2l-11.6,51.2l-3.2,57l2.1,59.6l7.4,15.3
		l14.6,4.2l15.8,35.6L109.6,450l-16-2.8l5.1,33.2l-12.9-15.6l-15.3-3.2l-15.8,31.1l-4.2-24.8l-30.6,26.9l13.7-25.3L13.6,475.8z"/>
	<path class="st4" d="M104.8,424.7l-13.7-8.5c-0.6-0.3-4.9-3.7-8-6.2c-2.1-1.7-3.9-3.6-5.4-5.7l-6.1-8.5"/>
	<path class="st4" d="M95.5,278.7l-7,64.8c-0.2,2.1-0.3,4.3-0.2,6.4l3.9,67"/>
	<polyline class="st4" points="79.5,249.5 88.3,207.3 90.2,182.2 	"/>
	<line class="st4" x1="86.2" y1="217.7" x2="83.7" y2="186.7"/>
</g>
<g id="leaves_-_front">
	<path class="st5" d="M37.9,144.3l0.7,1.1c2.9,4.7,10,4.1,12.1-1.1l0,0l0.5,0.9c2.2,4.1,8.2,3.5,9.5-0.9l0,0l2.1,1.4
		c2.8,1.9,6.4-0.8,5.5-4l0,0l0,0c3.2,2.3,7.6-0.5,6.9-4.4l0,0l0,0c5.2-0.9,7-7.4,3.1-11l-1-0.9l0,0c4.5-1.1,5.5-7.1,1.7-9.6
		l-0.6-0.4l0,0c5.9-0.2,9.6-6.3,7.1-11.7l-2.1-4.4l0,0c4.8,2.6,10.7-0.7,11.1-6.2l0.2-2.8l0,0c2.5,4.2,8.5,4.6,11.6,0.8l0.7-0.8
		l-0.1,0.5c-1.1,5,4.8,8.5,8.7,5.1l0,0l-0.6,1.9c-1.9,5.6,1.9,11.5,7.8,12.1l0,0l-0.3,3c-0.4,3.1,2.3,5.7,5.4,5.2l0.4-0.1v0.3
		c0,4.8,4.5,8.4,9.2,7.3l1.8-0.4v6.4c0,2.9,1.9,5.5,4.7,6.4l0.3,0.1l-2.5,3.9c-2.5,3.9-0.4,9.1,4.1,10.3l0,0l-4.2,3.6
		c-4.1,3.5-2.6,10.1,2.6,11.5l0,0l-1.3,1.6c-3.2,3.8-1.1,9.6,3.8,10.6l1,0.2l0,0c2.3,3.2,7.1,3.1,9.3-0.1l2.6-3.8l0,0
		c4,4.6,11.2,4.6,15.2,0l1.1-1.3l5.9-0.1c6.2-0.1,10.8-5.8,9.6-11.9l-0.7-4l8.5-0.6c6.9-0.5,11.1-7.9,8-14.1l-3.3-6.7l2.5-1.5
		c8.3-5,9-16.7,1.4-22.6l-0.3-0.2l3.3-1.1c8.8-2.9,12.4-13.4,7.3-21.1l-0.8-1.2l0.8-0.5c5.3-3,5.1-10.8-0.4-13.5l-2.1-1l2.3-2.1
		c5.2-4.8,3.1-13.4-3.8-15.2l-1.4-0.4l3.9-1.3c4.3-1.5,4.8-7.3,1-9.5l-1.7-1l-1.7-5.7c-1.6-5.5-7.9-7.9-12.9-5.1l-4.1,2.4l-0.7-3.3
		c-1.2-5.4-7.8-7.5-11.8-3.7l-2.5,2.3l-0.8-2.1c-2.8-7.2-12.2-8.9-17.4-3.2l-2.1,2.4l-0.9-1.7c-3.9-7.2-14-8-18.9-1.4l-1.3,1.7l0,0
		c-4.2-8.7-16.2-9.6-21.7-1.7l-0.3,0.5l0,0c-4.1-8.9-16.6-9.4-21.3-0.9l-0.7,1.2L95,24.4c-4.9-6.6-14.8-6.7-19.9-0.3L73,26.7l0,0
		c-6.3-3.7-14.1,1.2-13.5,8.5l0.1,1.3l0,0c-7.5-3.3-15.4,4-12.6,11.8l1.3,3.5l0,0c-7.3-3.1-14.9,4-12.2,11.5l0,0.1l0,0
		c-7,0.2-10.8,8.4-6.3,13.9l2,2.5l0,0c-9.1,1-11.8,13-3.9,17.6l0.5,0.3l0,0c-8.6,3.1-8.5,15.3,0.2,18.2l0.6,0.2l0,0
		c-6.5,4.5-4.5,14.6,3.2,16.3l0,0l-0.5,0.5C27.4,137.6,31.5,145.4,37.9,144.3L37.9,144.3z"/>
</g>
</svg>
