<?xml version="1.0" encoding="utf-8"?>
<!-- Generator: Adobe Illustrator 25.0.0, SVG Export Plug-In . SVG Version: 6.00 Build 0)  -->
<svg version="1.1" id="Layer_1" xmlns="http://www.w3.org/2000/svg" xmlns:xlink="http://www.w3.org/1999/xlink" x="0px" y="0px"
	 viewBox="0 0 253.6 412.8" style="enable-background:new 0 0 253.6 412.8;" xml:space="preserve">
<style type="text/css">
	.st0{display:none;}
	.st1{fill:#49310B;}
	.st2{fill:#0D6013;}
	.st3{fill:none;stroke:#0C4F0F;stroke-miterlimit:10;}
</style>
<g id="Layer_1_1_" class="st0">
	
		<image style="display:inline;overflow:visible;enable-background:new    ;" width="764" height="573" xlink:href="D81DC2B8.jpeg"  transform="matrix(1 0 0 1 -64.5199 -129.3145)">
	</image>
</g>
<g id="trunk">
	<polygon class="st1" points="56.4,412.8 79.8,397.5 88.3,375.6 89.4,344 137.1,344 137.1,375.3 143.8,397.8 163.5,412.8 	"/>
</g>
<g id="Leaves">
	<path class="st2" d="M-0.8,332.6l10.8,9.8c11.8,10.8,26.8,17.4,42.8,19.1l0,0c2.7,0.3,5.4,0.2,8.1-0.1l15.9-1.9l12.4,2
		c15.5,2.6,31.5,1.8,46.7-2.3l16.5-4.4l32.4,3.1l1.1,0c22.7,0.4,37.3-6.7,49.5-20.2l0,0l-9.6,1.1c-17.8,2-35.6-4.5-47.8-17.7l0,0
		l0,0c29.2,2.5,57.7-10.5,75-34.1l0.5-0.7l-7.5,1.8c-15.5,3.7-35,4.3-49-1.8c-9.9-4.3-15.3-13.2-22.5-21.8l-3.2-3.9l12.7,0.2
		c18.1,0.3,35-9.2,44.2-24.7l0.7-1.2l-18.9,3.5c-17-1.7-31-13.9-34.9-30.5l-0.6-2.4l15.4,2.9c13,2.5,26.3-0.9,36.7-9
		c1.7-1.3,3-2.9,4.2-4.7l1.5-4.7l-11.6,5.4c-10,3.2-19.5-0.9-28.9-5.7c-7.9-4-19.2-13.2-23.5-21.4l0,0l19.6-1.4
		c15.6-1.1,30.3-8,41.1-19.4l8.5-8.9l-19,3.7c-18.5,1.8-46.2-9-56.7-24.3l-9.2-21.6c-5.1-12.6-12.7-49.3-13.9-62.9L132.9,0
		l-10.4,42.5c-2,6.4-4,15.9-6.7,22l-12.6,28.3c-2.6,5.8-5.7,11.4-9.3,16.7l-8.4,12.3l0,0c-17.7,11.6-39.4,15.5-60,10.7l-20.7-4.8
		l12,11.3c14.4,13.5,27.4,26.1,47.1,24.6l12.5-1.5l-14.2,15l-7.4,3.2c-6.8,2.9-20.7,4.7-28,3.6l-14.8-4.1l0.5,1
		c0.6,1.2,1.4,2.4,2.4,3.3c4.2,4,8.3,8.2,13.3,10.5c7.5,3.6,17.2,3.7,25.6,5.2c5.6,1,11.2,3.5,17,3.3l0.5,0l-5.3,9.9
		c-3.5,6.5-9.2,18.5-16.3,20.6c-11.5,3.5-27,1.4-36.6,0c-2.5-0.4-4.8-1.2-7-2.5l-6-3.6l2.9,9.2c0.6,1.9,1.7,3.6,3.1,5
		c15.2,14.7,36.5,21.5,57.5,18.2l8.8-1.4l-15.6,19.8l-6.6,7.5c-5.9,6.6-10.7,6.5-19.1,8.4c-7.8,1.8-18.6,0-25.5-4L-6,281.6l0.9,9.5
		c1.8,7.2,6.4,13.4,12.8,17.2c15.2,9.2,33.4,12.8,51.3,9.9l9-1.5l-17,11.5c-10.4,7.1-23.2,9.7-35.6,7.4L-0.8,332.6z"/>
	<path class="st3" d="M75.9,161.8h1.4c12.8,0,24.5-7.2,30.4-18.6l0,0"/>
	<path class="st3" d="M167.7,168.1l-1.1-0.1c-11.6-0.6-22.7-5.1-31.4-12.8l0,0"/>
	<path class="st3" d="M49.3,196L49.3,196c0.7,1.1,1.6,2,2.8,2.6l1.5,0.9c4.1,1.9,8.3,3.2,12.9,3.2h3.9c5.3,0,10.5-0.9,15.5-2.6
		l6.7-3.4"/>
	<path class="st3" d="M174.1,205.3h-7c-10.6,0-20.4-5.8-25.5-15l0,0"/>
	<path class="st3" d="M129,208.5l0.8,0.1c9.4,1.1,18.9-0.7,27.3-5l0,0"/>
	<path class="st3" d="M72,258.3h5.5c9.9,0,19.6-2.5,28.3-7.1l0,0"/>
	<path class="st3" d="M170.9,260.3l-13.1-1.8c-8.9-1.2-17.2-5.2-23.7-11.4l0,0"/>
	<path class="st3" d="M91.8,256.6l0.2,0c9.1,2.4,18.6,3.2,28,2.2l3.4-0.4"/>
	<path class="st3" d="M86,314.3l-1.5,0.3c-4.4,1.2-8.9,1.8-13.4,1.8h-3.4"/>
	<path class="st3" d="M79.5,308.4l-0.8-1.2c1.8,2.8,3.4,4.8,6.9,7.2l2.1,1.2l0,0c5.8,1.5,11.9,0.9,17.3-1.7l12.5-5.8"/>
	<path class="st3" d="M178,321.1h-2.1c-8.2,0-16.2-2-23.4-5.7l0,0"/>
	<path class="st3" d="M165.3,320l-2,1.8c-4.1,3.8-9.2,6.2-14.7,6.9l0,0c-7.3,1-14.8-0.6-21.1-4.4l-2.1-1.2"/>
	<path class="st3" d="M152.2,354.3c-2.9,0.5-18.8-3.8-20.7-5.8"/>
	<path class="st3" d="M76.8,359.2c3.9,1,21.2-7.5,22.3-9.8"/>
</g>
</svg>
